<svg id="Layer_1" data-name="Layer 1" xmlns="http://www.w3.org/2000/svg" viewBox="0 0 192 192"><defs><style>.cls-1{fill:#fff;}</style></defs><title>icon_facebook</title><path class="cls-1" d="M181.4,0H10.67A10.67,10.67,0,0,0,0,10.67v170.8A10.66,10.66,0,0,0,10.67,192h92V117.75h-25V88.69h24.93V67.36c0-24.8,15.15-38.31,37.33-38.31a203.56,203.56,0,0,1,22.36,1.15V56.07H146.88c-12,0-14.32,5.72-14.32,14.1V88.69h28.77l-3.73,29.06h-25V192H181.4A10.67,10.67,0,0,0,192,181.4V10.67A10.67,10.67,0,0,0,181.4,0Z"/></svg>