<?xml version="1.0" encoding="utf-8"?>
<!-- Generator: Adobe Illustrator 16.0.0, SVG Export Plug-In . SVG Version: 6.00 Build 0)  -->
<!DOCTYPE svg PUBLIC "-//W3C//DTD SVG 1.1//EN" "http://www.w3.org/Graphics/SVG/1.1/DTD/svg11.dtd">
<svg version="1.1" id="Layer_1" xmlns="http://www.w3.org/2000/svg" xmlns:xlink="http://www.w3.org/1999/xlink" x="0px" y="0px"
	 width="44.666px" height="698.139px" viewBox="0 0 44.666 698.139" enable-background="new 0 0 44.666 698.139"
	 xml:space="preserve">
<path id="search" fill="#FFFFFF" d="M41.312,112.923l-9.258-9.263c1.238-2.062,1.975-4.469,1.975-7.049
	c0-7.529-6.09-13.623-13.612-13.629C12.895,82.988,6.8,89.082,6.8,96.611c0,7.518,6.099,13.615,13.618,13.615
	c2.588,0,4.987-0.729,7.046-1.99l9.262,9.264L41.312,112.923z M11.982,96.611c0.012-4.657,3.773-8.422,8.428-8.436
	c4.653,0.02,8.419,3.771,8.425,8.436c-0.009,4.646-3.771,8.416-8.425,8.422C15.759,105.027,11.991,101.263,11.982,96.611z"/>
<g id="Your_Icon_1_">
	<path fill="#FFFFFF" d="M42.319,4.07H7.717c-1.593,0-2.884,1.291-2.884,2.885c0,1.592,1.291,2.883,2.884,2.883h34.603
		c1.597,0,2.888-1.291,2.888-2.883C45.205,5.361,43.914,4.07,42.319,4.07z"/>
	<path fill="#FFFFFF" d="M42.319,16.049H7.717c-1.593,0-2.884,1.291-2.884,2.886c0,1.603,1.291,2.894,2.884,2.894h34.603
		c1.597,0,2.888-1.291,2.888-2.894C45.205,17.34,43.914,16.049,42.319,16.049z"/>
	<path fill="#FFFFFF" d="M45.205,30.91c0-1.592-1.291-2.883-2.886-2.883H7.717c-1.593,0-2.884,1.291-2.884,2.883
		c0,1.594,1.291,2.885,2.884,2.885h34.603C43.914,33.795,45.205,32.504,45.205,30.91z"/>
</g>
<g>
	<path fill="#FFFFFF" d="M42.603,167.527l4.397,3.67l-22.235,26.427L2.334,171.312l4.4-3.875l18.042,21.695L42.603,167.527z"/>
</g>
<g enable-background="new    ">
	<path fill="#FFFFFF" d="M21.565,288.559c-1.033,2.804-1.328,3.984-1.328,4.722c0,0.591,0.295,1.032,0.886,1.032
		c1.475-0.147,5.312-4.13,5.753-4.722c0.148-0.295,0.443-0.295,0.664-0.073l0.812,0.811c0.295,0.296,0.439,0.443,0.146,0.739
		c-0.442,0.589-5.606,7.671-13.648,7.671c-1.549,0-2.139-0.885-2.139-2.065c0-1.476,1.18-4.942,4.131-13.131l2.066-5.754
		c0.737-1.991,1.18-3.393,1.18-4.277c0-0.592-0.295-0.886-0.885-0.886c-1.181,0-4.574,3.835-5.607,5.016
		c-0.295,0.296-0.589,0.296-0.885,0l-0.738-0.663c-0.295-0.222-0.442-0.369-0.295-0.665c0.442-0.441,7.082-8.999,13.573-8.999
		c1.771,0,2.656,0.885,2.656,2.36c0,1.475-0.959,4.204-2.215,7.673L21.565,288.559z M22.819,254.405
		c0-1.991,1.844-3.984,4.131-3.984c2.949,0,4.5,1.845,4.5,3.688c0,1.697-1.696,4.279-4.354,4.279
		C24.146,258.388,22.819,256.248,22.819,254.405z"/>
</g>
<path fill="#FFFFFF" d="M20.732,519.776c0.709,0,1.047-0.562,1.047-1.688h0.045v-4.795c-0.051-1.054-0.392-1.684-1.102-1.684
	c-0.691,0-1.023,0.544-1.041,1.61v4.866C19.682,519.214,20.021,519.776,20.732,519.776z"/>
<path fill="#FFFFFF" d="M35.824,533.127c-0.628-0.762-1.423-1.232-2.519-1.232c-1.111,0-1.979,0.409-2.605,1.232
	c-0.465,0.608-0.674,1.548-0.674,2.829v4.208c0,1.281,0.233,2.229,0.699,2.83c0.631,0.82,1.496,1.229,2.637,1.229
	c1.139,0.047,2.029-0.387,2.634-1.257c0.262-0.387,0.433-0.818,0.508-1.306c0.021-0.219,0.044-0.703,0.044-1.403v-0.314h-2.223
	c0,0.868-0.027,1.354-0.045,1.475c-0.125,0.58-0.438,0.875-0.975,0.875c-0.785,0.062-1.101-0.565-1.101-1.671v-2.129h4.246v-2.534
	C36.453,534.699,36.278,533.757,35.824,533.127z M34.384,536.712h-2.175V535.6c0-1.1,0.358-1.65,1.071-1.664
	c-0.008,0-0.01-0.004-0.018-0.004h0.033c-0.008,0-0.013,0.004-0.02,0.004c0.771,0.011,1.103,0.63,1.104,1.664v1.112H34.384z"/>
<path fill="#FFFFFF" d="M28.271,535.686c0-1.154-0.014-1.94-0.158-2.414c-0.312-0.883-0.859-1.357-1.729-1.357
	c-0.8,0-1.544,0.438-2.247,1.306v-5.269h-2.177v16.125h2.177v-1.164c0.727,0.898,1.479,1.333,2.247,1.333
	c0.869,0,1.449-0.455,1.74-1.353c0.146-0.444,0.222-1.247,0.222-2.358h-0.074V535.686L28.271,535.686L28.271,535.686z
	 M26.187,540.64c0,1.081-0.319,1.616-0.946,1.616c-0.314,0-0.739-0.156-1.103-0.471v-7.323c0.361-0.357,0.723-0.528,1.084-0.528
	h0.021c0.629-0.006,0.926,0.625,0.944,1.576V540.64z"/>
<path fill="#FFFFFF" d="M0,344.667v207.61h42.466v-207.61H0z M8.962,371.439c0.421,0.082,0.851,0.123,1.295,0.123
	c0.626,0,1.235-0.082,1.812-0.237c-3.146-0.63-5.505-3.462-5.505-6.763c0-0.088,0-0.088,0-0.088
	c0.928,0.514,1.991,0.823,3.117,0.859c-1.731-1.17-2.987-3.371-2.987-5.729c0-1.263,0.341-2.443,0.931-3.461
	c3.304,4.145,8.42,6.977,14.122,7.229c-0.156-0.468-0.156-1.099-0.156-1.569c0-3.838,3.081-6.919,6.885-6.919
	c1.978,0,3.769,0.834,5.021,2.175c1.568-0.309,3.04-0.884,4.37-1.672c-0.515,1.608-1.607,2.957-3.027,3.812
	c1.38-0.166,2.693-0.533,3.916-1.07c0.005-0.007,0.009-0.01,0.011-0.014h0.028c-0.013,0.004-0.026,0.007-0.036,0.014
	c-0.941,1.382-2.058,2.636-3.436,3.552c0.014,0.295,0.021,0.59,0.021,0.891c0,9.098-6.923,19.586-19.587,19.586
	c-3.932,0-7.492-1.26-10.538-3.146c0.539,0.064,1.084,0.098,1.642,0.098c3.227,0,6.193-1.102,8.55-2.948
	C12.423,376.158,9.839,374.116,8.962,371.439z M27.358,522.034c-0.629,0.043-1.193-0.271-1.416-0.9
	c-0.155-0.39-0.155-1.02-0.155-1.806v-9.602h0.006v-0.262h2.194v8.938c0,0.516,0,0.786,0.025,0.854
	c0.049,0.345,0.221,0.519,0.516,0.519c0.438,0,0.896-0.34,1.385-1.016v-9.031h0.009v-0.262h2.198v12.143h-0.008v0.261h-2.239v-1.324
	C28.997,521.549,28.164,522.034,27.358,522.034z M23.981,517.939c0,1.358-0.229,2.304-0.795,2.827
	c-0.608,0.826-1.465,1.241-2.567,1.241s-1.908-0.474-2.518-1.26c-0.471-0.651-0.628-1.598-0.628-2.854v-4.253
	c0-0.058,0.006-0.105,0.007-0.161v-0.06c0-1.294,0.223-2.246,0.688-2.856c0.609-0.825,1.467-1.243,2.562-1.243
	c1.104,0,1.957,0.418,2.567,1.243c0.461,0.613,0.685,1.562,0.685,2.856v4.251l0,0c0,0.071-0.008,0.126-0.008,0.194v0.015
	L23.981,517.939z M23.245,446.34v18.502h-7.071v-0.047v-18.499h-4.892v-6.659h4.89c0,0,0-2.729,0-5.69
	c0-4.472,2.894-8.577,9.552-8.577c2.692,0,4.719,0.314,4.719,0.259l-0.162,6.22c0,0-2.032-0.02-4.252-0.02
	c-2.397,0-2.783,1.104-2.783,2.987c0,0.03,0,0.118,0,0.294c0,0.505,0,1.742,0,4.571h7.229l-0.312,6.659H23.245L23.245,446.34z
	 M17.455,505.578l-2.997,9.688v6.365h-0.001v0.239h-2.442v-6.599c-0.157-1.225-0.631-2.951-1.415-5.154
	c-0.472-1.551-1.06-2.968-1.573-4.54h0.097c-0.029-0.089-0.063-0.169-0.092-0.263H11.6l1.732,6.396l1.665-6.396h2.467l-0.082,0.263
	L17.455,505.578L17.455,505.578z M38.694,544.778c-0.439,1.914-2.01,3.327-3.897,3.539c-4.522,0.492-8.989,0.492-13.488,0.492
	c-4.561,0-9.058,0-13.527-0.47c-1.886-0.234-3.491-1.65-3.932-3.539c-0.628-2.694-0.628-5.686-0.628-8.515
	c0-2.833,0.009-5.665,0.633-8.46c0.441-1.917,2.008-3.33,3.894-3.539c4.466-0.498,8.988-0.504,13.489-0.498
	c4.502-0.006,9.021,0,13.492,0.498c1.886,0.209,3.455,1.622,3.895,3.539H38.61c0.629,2.795,0.637,5.627,0.715,8.432
	C39.323,539.071,39.319,542.048,38.694,544.778z"/>
<polygon fill="#FFFFFF" points="36.562,538.49 36.453,538.49 36.453,538.523 "/>
<path fill="#FFFFFF" d="M17.838,541.27c-0.484,0.681-0.941,1.019-1.376,1.019c-0.313,0-0.421-0.159-0.472-0.473
	c0-0.061,0-0.372,0-0.847v-8.848h-2.178v9.502c0,0.848,0.074,1.422,0.19,1.784c0.223,0.606,0.705,0.895,1.408,0.895
	c0.799,0,1.621-0.48,2.485-1.475v1.309v0.003h2.123v-12.051h-2.181L17.838,541.27L17.838,541.27z"/>
<polygon fill="#FFFFFF" points="5.906,530.282 8.468,530.282 8.468,544.136 10.888,544.136 10.888,530.282 13.497,530.282 
	13.497,528.009 5.906,528.009 "/>
<g id="Your_Icon">
	<path fill="#515151" d="M17.495,604.889L5.071,592.388l6.034-6.07l6.565,6.604l17.702-17.809l5.857,5.895L17.495,604.889z"/>
</g>
<polygon fill="#FFFFFF" points="22.332,676.475 43.26,662.247 43.26,685.497 1.406,685.497 1.406,662.247 "/>
<polygon fill="#FFFFFF" points="43.26,659.71 1.406,659.71 22.332,673.939 "/>
</svg>
