<svg id="Layer_1" data-name="Layer 1" xmlns="http://www.w3.org/2000/svg" viewBox="0 0 192 192"><defs><style>.cls-1{fill:#fff;}</style></defs><title>icon_twitter</title><path class="cls-1" d="M167.62,191.5H24.38A23.89,23.89,0,0,1,.5,167.62V24.38A23.89,23.89,0,0,1,24.38.5H167.62A23.89,23.89,0,0,1,191.5,24.38V167.62A23.89,23.89,0,0,1,167.62,191.5Zm-93.78-47c45,0,69.67-37.34,69.67-69.66,0-1,0-2.1,0-3.15A50,50,0,0,0,155.69,59a49.58,49.58,0,0,1-14.09,3.87A24.63,24.63,0,0,0,152.39,49.3a48.64,48.64,0,0,1-15.56,5.92A24.5,24.5,0,0,0,94.47,72a27.27,27.27,0,0,0,.62,5.59A69.5,69.5,0,0,1,44.62,52a24.6,24.6,0,0,0,7.59,32.71,24.73,24.73,0,0,1-11.07-3.05V82a24.54,24.54,0,0,0,19.62,24,24.61,24.61,0,0,1-11,.43,24.48,24.48,0,0,0,22.87,17,49.07,49.07,0,0,1-30.41,10.5,46.93,46.93,0,0,1-5.83-.33,69.59,69.59,0,0,0,37.48,10.93"/></svg>