<svg id="Layer_1" data-name="Layer 1" xmlns="http://www.w3.org/2000/svg" viewBox="0 0 192 192"><defs><style>.cls-1{fill:#fff;}</style></defs><title>icon_instagram</title><path class="cls-1" d="M96,17.3c25.63,0,28.67.1,38.79.56,9.36.42,14.45,2,17.83,3.3a29.73,29.73,0,0,1,11,7.18,29.73,29.73,0,0,1,7.18,11c1.31,3.38,2.88,8.47,3.3,17.83.46,10.12.56,13.16.56,38.79s-.1,28.67-.56,38.79c-.42,9.36-2,14.45-3.3,17.83a31.77,31.77,0,0,1-18.22,18.22c-3.38,1.31-8.47,2.88-17.83,3.3-10.12.46-13.16.56-38.79.56s-28.67-.1-38.79-.56c-9.36-.42-14.45-2-17.83-3.3a29.73,29.73,0,0,1-11-7.18,29.73,29.73,0,0,1-7.18-11c-1.31-3.38-2.88-8.47-3.3-17.83-.46-10.12-.56-13.16-.56-38.79s.1-28.67.56-38.79c.42-9.36,2-14.45,3.3-17.83a29.73,29.73,0,0,1,7.18-11,29.73,29.73,0,0,1,11-7.18c3.38-1.31,8.47-2.88,17.83-3.3C67.33,17.4,70.37,17.3,96,17.3M96,0C69.93,0,66.66.11,56.42.58S39.22,2.67,33.12,5a47.08,47.08,0,0,0-17,11.07A47.08,47.08,0,0,0,5,33.12C2.67,39.22,1,46.2.58,56.42S0,69.93,0,96s.11,29.34.58,39.58,2.09,17.2,4.46,23.3a47.08,47.08,0,0,0,11.07,17,47.08,47.08,0,0,0,17,11.07c6.1,2.37,13.08,4,23.3,4.46S69.93,192,96,192s29.34-.11,39.58-.58,17.2-2.09,23.3-4.46A49,49,0,0,0,187,158.88c2.37-6.1,4-13.08,4.46-23.3S192,122.07,192,96s-.11-29.34-.58-39.58-2.09-17.2-4.46-23.3a47.08,47.08,0,0,0-11.07-17A47.08,47.08,0,0,0,158.88,5c-6.1-2.37-13.08-4-23.3-4.46S122.07,0,96,0Z"/><path class="cls-1" d="M96,46.7A49.3,49.3,0,1,0,145.3,96,49.3,49.3,0,0,0,96,46.7ZM96,128a32,32,0,1,1,32-32A32,32,0,0,1,96,128Z"/><circle class="cls-1" cx="147.25" cy="44.75" r="11.52"/></svg>