<svg id="Layer_1" data-name="Layer 1" xmlns="http://www.w3.org/2000/svg" viewBox="0 0 482 106"><defs><style>.cls-1{fill:#fff;}.cls-2{fill:#ffc629;}</style></defs><title>Artboard 1</title><path class="cls-1" d="M25.36,56.07H21.2c-.49,0-.91,0-1-.58a.7.7,0,0,1,.53-.87.71.71,0,0,0-.09.7c.11.3.36.25.77.25H26c0,.45-.67.5-.67.5"/><path class="cls-1" d="M24.24,74.13h-2c-.35,0-.66-.07-.78-.45s.35-.56.35-.56-.1.18,0,.41.27.2.56.2h2.37c0,.39-.47.39-.47.39"/><path class="cls-1" d="M26,56.49H20.36a1.06,1.06,0,0,1-1-1.14,1.08,1.08,0,0,1,1-1.14H26a1.15,1.15,0,0,1,0,2.28M24.61,57.9H21.73a1.51,1.51,0,0,1-1.21-.6h5.29a1.51,1.51,0,0,1-1.2.61m-2,.88a14.89,14.89,0,0,0,2.23-.09l-.59,13.15H22.83Zm-1.14-.09s.2,0,.54.05l.49,13.1h-.38Zm4.23,14.93a1,1,0,0,1-1,1h-3a1,1,0,0,1-1-1,1,1,0,0,1,1-1h3a1,1,0,0,1,1,1m-1.85,7.17a.63.63,0,0,1-.64.65.66.66,0,0,1-.65-.65l-.26-5.37h.33l.2,5.19c0,.39.18.47.18.47l-.1-5.66h1.18Zm-5-29.27a4.35,4.35,0,0,1,.59-1.92A4,4,0,0,0,20,47a3.81,3.81,0,0,1,1.32.84c-.28.33-.58.65-.74.85a3.64,3.64,0,0,0-.36,4.79h-.17a2,2,0,0,1-1.23-1.91m4.05-6A5.86,5.86,0,0,1,25.2,49.7a6.25,6.25,0,0,1-1.72,3.71,3.17,3.17,0,0,1-.6-1.81,3.41,3.41,0,0,1,.65-2.11,2.69,2.69,0,0,0-1.11,1.85,3.63,3.63,0,0,0,.47,2.07h-.58A2.93,2.93,0,0,1,22,50.16c.16-.26.87-1.28,1-1.49a1.32,1.32,0,0,0,.09-.49,3,3,0,0,1-.32.42c-.2.22-.89.94-1.11,1.2-1.35,1.64,0,3.46,0,3.61h-.55a3,3,0,0,1-.74-2.36c.14-2.26,2.86-2.54,2.59-5.53m3.76,1.92a6.63,6.63,0,0,0,.32,3.3,2.22,2.22,0,0,1-1.11,2.67H24.53A6.53,6.53,0,0,0,26,49.7a5.34,5.34,0,0,0-.11-1.08l-.11-.37a4.38,4.38,0,0,1,.89-.81m.23,6.27a3,3,0,0,0,.89-3.22l0-.05a5.76,5.76,0,0,1-.1-3.59l.2-.62-.65.08a3.33,3.33,0,0,0-1.78,1.06,8.16,8.16,0,0,0-3.77-3.48c.56,1.78.63,2.44.17,3.2a4.65,4.65,0,0,0-2.37-1.16l-.74-.11.3.68a2.91,2.91,0,0,1-.33,2.73A5.05,5.05,0,0,0,18,51.52a2.85,2.85,0,0,0,1.18,2.36,2,2,0,0,0-.66,1.48,2,2,0,0,0,1,1.72,2.3,2.3,0,0,0,1.13,1.35l.67,13.45a1.79,1.79,0,0,0,.17,3.53l.27,5.39a1.45,1.45,0,0,0,2.9,0l.24-5.41a1.79,1.79,0,0,0,.16-3.54l.59-13.41a2.33,2.33,0,0,0,1.19-1.4,2,2,0,0,0,1-1.71,2,2,0,0,0-.89-1.64"/><path class="cls-1" d="M58.93,56.07H54.77c-.49,0-.91,0-1-.58a.7.7,0,0,1,.53-.87.73.73,0,0,0-.1.7c.12.3.37.25.78.25H59.6c0,.45-.67.5-.67.5"/><path class="cls-1" d="M57.8,74.13h-2c-.34,0-.65-.07-.78-.45s.36-.56.36-.56-.11.18,0,.41.27.2.56.2h2.37c0,.39-.48.39-.48.39"/><path class="cls-1" d="M59.54,56.49H53.93a1.06,1.06,0,0,1-1-1.14,1.09,1.09,0,0,1,1-1.14h5.62a1.15,1.15,0,0,1,0,2.28M58.17,57.9H55.3a1.51,1.51,0,0,1-1.21-.6h5.29a1.55,1.55,0,0,1-1.21.61m-2,.88a15,15,0,0,0,2.24-.09l-.59,13.15H56.4ZM55,58.69s.21,0,.55.05l.48,13.1h-.37Zm4.23,14.93a1,1,0,0,1-1,1h-3a1,1,0,0,1,0-2h3a1,1,0,0,1,1,1m-1.84,7.17a.64.64,0,0,1-.65.65.65.65,0,0,1-.64-.65l-.27-5.37h.34l.19,5.19c0,.39.18.47.18.47l-.1-5.66h1.19Zm-5-29.27A4.35,4.35,0,0,1,53,49.6,4.12,4.12,0,0,0,53.61,47a3.78,3.78,0,0,1,1.31.84c-.27.33-.57.65-.74.85a3.65,3.65,0,0,0-.35,4.79h-.18a2,2,0,0,1-1.22-1.91m4-6a5.79,5.79,0,0,1,2.29,4.18A6.19,6.19,0,0,1,57,53.41a3.25,3.25,0,0,1-.6-1.81,3.48,3.48,0,0,1,.65-2.11A2.7,2.7,0,0,0,56,51.34a3.63,3.63,0,0,0,.47,2.07h-.59a3,3,0,0,1-.34-3.25c.16-.26.86-1.28.95-1.49a1.23,1.23,0,0,0,.1-.49,4.25,4.25,0,0,1-.32.42c-.2.22-.89.94-1.11,1.2-1.35,1.64,0,3.46,0,3.61h-.55a3,3,0,0,1-.74-2.36c.13-2.26,2.86-2.54,2.58-5.53m3.77,1.92a6.68,6.68,0,0,0,.31,3.3,2.22,2.22,0,0,1-1.11,2.67H58.1a6.6,6.6,0,0,0,1.47-3.7,5.33,5.33,0,0,0-.12-1.08l-.1-.37a3.91,3.91,0,0,1,.89-.81m.23,6.27a3,3,0,0,0,.88-3.22l0-.05a5.8,5.8,0,0,1-.09-3.59l.2-.62-.65.08A3.26,3.26,0,0,0,59,47.37a8.16,8.16,0,0,0-3.77-3.48c.56,1.78.63,2.44.17,3.2A4.72,4.72,0,0,0,53,45.93l-.74-.11.3.68a2.91,2.91,0,0,1-.33,2.73,5.05,5.05,0,0,0-.68,2.29,2.85,2.85,0,0,0,1.17,2.36,2,2,0,0,0-.65,1.48,1.94,1.94,0,0,0,1,1.72,2.31,2.31,0,0,0,1.14,1.35l.66,13.45A1.79,1.79,0,0,0,55,75.41l.28,5.39a1.45,1.45,0,0,0,2.89,0l.24-5.41a1.81,1.81,0,0,0,1.61-1.79,1.78,1.78,0,0,0-1.45-1.75l.6-13.41a2.36,2.36,0,0,0,1.19-1.4,2,2,0,0,0,.07-3.35"/><path class="cls-1" d="M43.94,59.12H36.53a1.75,1.75,0,0,1,0-3.5h7.42a1.65,1.65,0,0,1,.38.05h0a1.75,1.75,0,0,1-.4,3.45M42.45,61H37.93A1.73,1.73,0,0,1,36.33,60h7.86A1.92,1.92,0,0,1,42.45,61M41.9,80.46H39.75l-.23-18.6h2.93a1.56,1.56,0,0,0,.31,0Zm2,2.28a1.45,1.45,0,0,1-1.45,1.45H38.14a1.45,1.45,0,0,1,0-2.9h4.31a1.47,1.47,0,0,1,1.46,1.45m-2.56,9.88a1.1,1.1,0,0,1-1.1,1.1,1.11,1.11,0,0,1-1.11-1.12L38.78,85h.69l.28,7.38c0,.55.25.66.25.66l-.12-8H41.7ZM38.53,61.86l.78,18.6h-.74l-.85-18.61h.81ZM34.11,52.1A6.06,6.06,0,0,1,35,49.38a5.3,5.3,0,0,0,.74-3.86,5.32,5.32,0,0,1,2.24,1.38c-.18.22-.38.45-.6.68l-.51.56a5.31,5.31,0,0,0-.66,6.69l-.29.05a2.9,2.9,0,0,1-1.76-2.78m5.45-6.37a4.65,4.65,0,0,0,.11-2.18c1.28,1,3.49,3.08,3.51,5.74a8.38,8.38,0,0,1-2.4,5.5h-.12a4.42,4.42,0,0,1-.82-2.49,4.76,4.76,0,0,1,.9-2.93,3.72,3.72,0,0,0-1.53,2.57,5,5,0,0,0,.64,2.85H39a4,4,0,0,1-.47-4.48c.22-.37,1.19-1.78,1.32-2.07a1.66,1.66,0,0,0,.13-.68,4.44,4.44,0,0,1-.44.58c-.28.32-1.24,1.31-1.54,1.67-1.83,2.22-.12,4.69,0,5h-.91a4.43,4.43,0,0,1,.26-6.06l0,0,.5-.55a6.62,6.62,0,0,0,1.61-2.42m5.76.4A9,9,0,0,0,45.69,51,3.23,3.23,0,0,1,44.2,54.8H41.9A8.75,8.75,0,0,0,44,49.29a5.63,5.63,0,0,0-.3-1.81,5.62,5.62,0,0,1,1.6-1.35m-.13,9a4,4,0,0,0,1.3-4.39l0,0a8.22,8.22,0,0,1-.14-5.09l.2-.63-.65.08a4.74,4.74,0,0,0-2.51,1.57A11.74,11.74,0,0,0,39.2,42.2l-1-.6.4,1.11a4.85,4.85,0,0,1,.17,2.74,4.35,4.35,0,0,1-.35.75,6.37,6.37,0,0,0-3.33-1.69l-.73-.1.29.68c.69,1.58.16,2.66-.45,3.92a6.71,6.71,0,0,0-.93,3.09A3.78,3.78,0,0,0,35,55.33a2.55,2.55,0,0,0-1,2.05,2.59,2.59,0,0,0,1.44,2.32,2.6,2.6,0,0,0,1.49,1.93l.87,18.87A2.29,2.29,0,0,0,38,85l.34,7.59a1.95,1.95,0,0,0,3.89,0l.35-7.6a2.29,2.29,0,0,0,.21-4.56l.87-18.87a2.6,2.6,0,0,0,1.54-1.94,2.58,2.58,0,0,0,0-4.55"/><path class="cls-1" d="M36.12,57.41a1.15,1.15,0,0,1,.15-1.12,1,1,0,0,0-.79,1.35c.19.9.81,1,1.6,1h6.71A1.1,1.1,0,0,0,44.88,58H37.37c-.66,0-1.06-.07-1.25-.55"/><path class="cls-1" d="M37.79,82.79a.89.89,0,0,1,.12-.88A.81.81,0,0,0,37.28,83c.15.71.64.78,1.27.78h3.66a.85.85,0,0,0,.85-.53H38.77c-.52,0-.83-.06-1-.44"/><path class="cls-1" d="M71.49,63.61C66.6,75.53,57.24,91.86,40.36,102.15,23.45,91.91,14,75.6,9.12,63.68a104.89,104.89,0,0,1-6.6-23A12.48,12.48,0,0,1,8.83,39h0a22.07,22.07,0,0,1,5.14.66l.78.23,2,.59h0a30.33,30.33,0,0,0,7.47,1.44h0A31.29,31.29,0,0,0,34.59,40.1,19.82,19.82,0,0,1,38.73,39l1.38-.1h.08l2.13.19a22,22,0,0,1,3.54,1,31.47,31.47,0,0,0,10.28,1.77h0a24.36,24.36,0,0,0,5.91-1h0c1.08-.29,2.17-.62,3.21-.92l1.16-.34a22.74,22.74,0,0,1,5.23-.69h0A13,13,0,0,1,78,40.52a104.56,104.56,0,0,1-6.55,23.09M25.1,30.3A16,16,0,0,0,24,34.42,32.29,32.29,0,0,1,17.3,33l-2.8-.82A23.29,23.29,0,0,0,9,31.5h0a17.41,17.41,0,0,0-7.31,1.65c-.09-1.38-.18-2.94-.21-4.64ZM1.47,22.9l24.61,5.39c-.22.37-.42.76-.61,1.16L1.4,26.23c0-1.07,0-2.19.07-3.33m.85-9L27.88,25.75a16.66,16.66,0,0,0-1.35,1.78l-24.93-7c.14-2.12.38-4.35.72-6.63M3,10.08a49.16,49.16,0,0,0,5.46.86L29.22,24.37c-.28.25-.56.51-.82.78L2.75,11.42c.08-.45.15-.89.25-1.34m11,1.16a40.88,40.88,0,0,0,7.53-.67L32,22.3a16.66,16.66,0,0,0-2.24,1.57L12.51,11.22l1.53,0M27.41,9l6.94,12.21q-.7.27-1.38.6L24.14,10c1.14-.31,2.23-.65,3.27-1m9.18-4.43,2.12,15.62a16.57,16.57,0,0,0-3.39.69L29.5,8.2a43,43,0,0,0,7.09-3.65m3.65-2.67c.52.44,1,.85,1.57,1.24l-.94,17-.59,0h0l-.62,0-.94-17c.68-.5,1.2-.93,1.54-1.22m3.63,2.67a42.61,42.61,0,0,0,7,3.65L45.1,20.84a16.17,16.17,0,0,0-3.35-.67ZM53,9c1.49.51,2.65.82,3.29,1L47.45,21.77c-.45-.22-.91-.42-1.39-.6Zm5.92,1.51a46.91,46.91,0,0,0,8,.69c.34,0,.65,0,1,0L50.61,23.82a16.9,16.9,0,0,0-2.22-1.54Zm13,.43A43.07,43.07,0,0,0,77.48,10c.1.45.17.89.25,1.34L52,25.11a10.2,10.2,0,0,0-.82-.79Zm6.25,2.93c.36,2.33.6,4.6.75,6.77L54,27.6a14.8,14.8,0,0,0-1.45-1.89Zm1,12.41L55.05,29.48c-.18-.39-.38-.77-.59-1.14L79,23c0,1.14.08,2.24.08,3.3M62,34.09l-.19-.68a25.63,25.63,0,0,1-5.3,1,16.4,16.4,0,0,0-1.08-4.07l23.67-1.78c0,1.63-.11,3.13-.2,4.46a17.15,17.15,0,0,0-7.11-1.57h0a23.84,23.84,0,0,0-5.62.74l-1.08.31c-1,.32-2.16.65-3.26.94ZM40.33,31.46v0a12.94,12.94,0,0,0-1.65.11h0a21.58,21.58,0,0,0-4.44,1.15,30.22,30.22,0,0,1-8.8,1.69A14.92,14.92,0,0,1,40.26,21.5h0A15.07,15.07,0,0,1,55.11,34.36a30.12,30.12,0,0,1-8.68-1.66,24.56,24.56,0,0,0-3.78-1v0a14.55,14.55,0,0,0-2.32-.2M24.39,35.83h0a30.76,30.76,0,0,0,6.67-.76,33.15,33.15,0,0,0,3.63-1A21,21,0,0,1,38.84,33l1.48-.09,2.1.18A22,22,0,0,1,46,34a32,32,0,0,0,4.4,1.19,31.31,31.31,0,0,0,5.88.57h0a23.72,23.72,0,0,0,5.91-1c1.11-.3,2.23-.63,3.3-1l1.07-.32a22.78,22.78,0,0,1,5.23-.67h0a15.6,15.6,0,0,1,7,1.69q-.08.84-.15,1.56a15.61,15.61,0,0,0-7-1.64h0a23.72,23.72,0,0,0-5.63.74l-1.15.34c-1,.3-2.11.62-3.19.91a26.28,26.28,0,0,1-5.58,1,30.13,30.13,0,0,1-9.81-1.69c-.5-.18-1.08-.37-1.7-.55a20.65,20.65,0,0,0-2.09-.49,14.45,14.45,0,0,0-2.32-.2,13.19,13.19,0,0,0-1.65.11h0a17,17,0,0,0-2.48.52c-.7.2-1.36.41-2,.63a30,30,0,0,1-9.84,1.71h0a29.75,29.75,0,0,1-7.09-1.39l-2.8-.82a23.2,23.2,0,0,0-5.53-.72h0A15.62,15.62,0,0,0,1.9,36.16c0-.46-.1-1-.14-1.49A15.81,15.81,0,0,1,8.94,32.9H9a22.21,22.21,0,0,1,5.15.67l2.8.82.2-.67-.2.67a30.39,30.39,0,0,0,7.48,1.44M61.9,40.15l-.18-.68a22.54,22.54,0,0,1-5.56,1h0a29.91,29.91,0,0,1-9.82-1.69,23.61,23.61,0,0,0-3.78-1,13,13,0,0,0-4-.1,21.71,21.71,0,0,0-4.44,1.15,30,30,0,0,1-9.84,1.71h0a29.31,29.31,0,0,1-7.08-1.39l-.19.68.19-.68c-.69-.2-1.37-.39-2-.59l-.79-.23a23.2,23.2,0,0,0-5.53-.72h0a13.75,13.75,0,0,0-6.54,1.6c0-.35-.13-.85-.21-1.49a14.16,14.16,0,0,1,6.74-1.75h0a22.05,22.05,0,0,1,5.14.67l2.81.82.19-.68-.19.68a30.29,30.29,0,0,0,7.47,1.45h0a31.56,31.56,0,0,0,10.3-1.8A20.59,20.59,0,0,1,38.73,36l1.37-.11h.09l2.12.19a23.65,23.65,0,0,1,3.54,1,31.51,31.51,0,0,0,10.28,1.77h0a23.78,23.78,0,0,0,5.92-1c1.08-.29,2.17-.62,3.22-.92l1.15-.34a22,22,0,0,1,5.23-.68h0a14.11,14.11,0,0,1,6.77,1.73c-.07.61-.14,1.1-.19,1.45a14.35,14.35,0,0,0-6.58-1.55h0a24,24,0,0,0-5.63.74l-1.16.34c-1,.31-2.1.63-3.17.91Zm18.54-17.5-.14-2.42c-.16-2.24-.43-4.6-.81-7l-.27-1.63c-.15-.87-.32-1.74-.52-2.61l-.16-.73-.72.21s-1.18.33-3.14.66l-4.74.54c-.94.06-1.94.1-3,.1a45.53,45.53,0,0,1-8.07-.72l-1.66-.33h-.09s-1.37-.3-3.4-1L51.51,6.9A40.76,40.76,0,0,1,44.07,3L41.9,1.42c-.4-.32-.81-.65-1.2-1L40.21,0l-.46.44s-.41.38-1.14,1L36.38,3a43,43,0,0,1-7.47,3.92l-2.21.82c-1.07.37-2.19.71-3.38,1l-.09,0-1.92.42A40.7,40.7,0,0,1,14,9.84c-1.26,0-2.46-.05-3.59-.13L5.7,9.15c-1.88-.3-3-.59-3.07-.59l-.7-.18-.16.71c-.15.7-.28,1.39-.41,2.09L1,13.3C.63,15.65.37,18,.22,20.16L.08,22.6C0,23.79,0,24.94,0,26l0,2.37A80.08,80.08,0,0,0,1,40a103.83,103.83,0,0,0,6.8,24.18c5,12.11,14.57,28.7,31.8,39.15l.75.45.75-.45c17.2-10.5,26.73-27.11,31.7-39.24a103,103,0,0,0,6.73-24.19,80.14,80.14,0,0,0,1-11.48V26.08c0-1.11,0-2.24-.08-3.43"/><path class="cls-2" d="M95.38,13.05c0-1.78-.42-2.62-1.78-2.62H91.18c-.32,0-.43-.11-.43-.48V8.74c0-.32.11-.42.53-.42s3,.16,8.1.16c4.42,0,7-.16,7.58-.16.31,0,.42.1.42.37V10c0,.32-.11.43-.42.43h-2.21a2.31,2.31,0,0,0-2.58,2c0,.64-.16,3.79-.16,6.84v6.53c0,2.63.06,6.36.16,8.05.16,2.42.58,4.84,1.84,6.52a8.69,8.69,0,0,0,7.16,3.26,11.13,11.13,0,0,0,7-2.52c2-2,3.06-5,3.06-8.9V22.79a99.38,99.38,0,0,0-.58-10,2.31,2.31,0,0,0-2.16-2.31h-1.89c-.32,0-.42-.16-.42-.38V8.74c0-.32.1-.42.42-.42.52,0,2.94.16,6.42.16,3.26,0,4.94-.16,5.36-.16s.53.16.53.42V10c0,.32-.06.48-.32.48h-1.89a2.07,2.07,0,0,0-2.21,2c-.11.64-.11,8-.11,8.69s-.1,9.89-.31,12c-.32,4.31-1.58,7.57-4.42,10.1a14.2,14.2,0,0,1-9.58,3.26,21.62,21.62,0,0,1-7.57-1.26,10.7,10.7,0,0,1-6.21-7c-.74-2.32-1-5.79-1-12.68Z"/><path class="cls-2" d="M130.42,34c.21,0,.32.11.32.42a12.18,12.18,0,0,0,2,6,8.18,8.18,0,0,0,6.94,3.79c2.84,0,6.84-1.79,6.84-6.16,0-4.83-2.21-6.42-7.78-8.52a25,25,0,0,1-7.69-4.42c-1.78-1.69-2.63-4.31-2.63-7.52a8.92,8.92,0,0,1,3.69-7.37,10.77,10.77,0,0,1,7.47-2.52A16.54,16.54,0,0,1,146.2,9a.91.91,0,0,0,1.11-.16l.68-.68a1,1,0,0,1,.74-.32c.32,0,.42.32.42.84,0,.85.84,8.21.84,8.74,0,.21-.1.31-.31.37l-.84.26a.41.41,0,0,1-.53-.32,15.23,15.23,0,0,0-3.26-5.57,6.89,6.89,0,0,0-5.47-2.21,5.62,5.62,0,0,0-5.9,5.31,6.36,6.36,0,0,0,1.48,4.73c1.37,1.37,4.31,2.64,6.42,3.27,3,.94,5.57,2,7.57,4.1,1.68,1.79,2.63,4,2.63,7.53,0,6.41-4.21,11.67-11.15,11.67-4.32,0-6.84-.94-8.94-2.52-.64-.42-.95-.64-1.27-.64s-.52.43-.84.95-.52.64-1,.64-.63-.32-.63-.85.85-9.15.95-9.78c.05-.32.11-.42.32-.42Z"/><path class="cls-2" d="M188.82,37.15a.39.39,0,0,1,.1.52c-3.15,4.53-8.21,8.84-15.67,8.84-6.74,0-10.52-2-13.79-4.95-3.89-3.46-5.67-9.57-5.67-14.2a20.38,20.38,0,0,1,5.36-14.1,18.18,18.18,0,0,1,13.68-5.57,22.9,22.9,0,0,1,10.62,2.52c.74.42,1,.42,1.06,0l.41-1.37c.11-.31.21-.31.85-.31s.73.1.73.84c0,1,1.05,9.36,1.27,10.94,0,.32,0,.48-.22.53l-1,.32c-.26.1-.42-.11-.57-.53a18.78,18.78,0,0,0-4.11-6.84,12.53,12.53,0,0,0-9.15-3.89c-8.42,0-11.89,7.57-11.89,15.15,0,3.26.95,9.47,4.84,13.67,3.47,3.69,6.52,4.11,9.05,4.11a15.33,15.33,0,0,0,12.57-6.1c.26-.37.48-.53.63-.37Z"/><path class="cls-1" d="M205.23,45.41a9.62,9.62,0,0,1-6.26-7c-.63-2.37-.84-5.89-.84-12.79V13.05c0-1.84-.37-2.68-2-2.68h-2.47c-.31,0-.37-.1-.37-.47V8.74c0-.32.06-.42.48-.42s3.1.16,7.2.16,6.63-.16,7.21-.16c.42,0,.47.1.47.31V10c0,.27-.05.37-.42.37H205.6a2.37,2.37,0,0,0-2.52,2.16c-.06.47-.11,4.15-.11,6.84v3.47c0,2.78.21,9.47.27,11.15a12.59,12.59,0,0,0,1.68,6.68c1.94,2.84,5.31,3.79,8.36,3.79a11.22,11.22,0,0,0,7.89-2.89c2.05-2.21,2.74-5.37,2.74-9.26V21.05c0-4-.11-7-.26-8.36a2.35,2.35,0,0,0-2.37-2.32H219c-.31,0-.37-.16-.37-.42V8.69c0-.27.06-.37.37-.37.53,0,2.95.16,6.47.16s5.32-.16,5.79-.16.53.21.53.37V9.85c0,.31-.05.52-.32.52h-2.16c-1.94,0-2.1,1.48-2.26,2.1s-.1,8-.1,8.74-.11,9.94-.27,12c-.31,4.31-1.47,7.63-4.41,10.15-2.11,1.95-5.32,3.16-9.9,3.16a19.5,19.5,0,0,1-7.1-1.1"/><path class="cls-1" d="M250.43,42.88c0,.84.47,1.11,1.15,1.11h1.68c.48,0,.58.15.58.47v.84c0,.37-.1.58-.42.58s-2-.16-5-.16c-2.69,0-4.37.16-4.74.16s-.42-.16-.42-.58v-.84c0-.37.16-.47.68-.47h1.53c.58,0,1-.27,1.06-1.21.05-1.37.1-3.06.1-4.42V31.41c0-2.1,0-3.62-1.53-4.73a5.74,5.74,0,0,0-3.84-.95A6.16,6.16,0,0,0,237,27.79a5.14,5.14,0,0,0-1.21,3.57V42.25c0,1.42.16,1.74,1.26,1.74h1.32c.42,0,.52.15.52.52v.9c0,.31-.1.47-.36.47s-1.79-.16-4.58-.16-4.37.16-4.68.16-.37-.16-.37-.47v-.95c0-.32.1-.47.52-.47H231c.68,0,1-.16,1-1.06V30.62a3.24,3.24,0,0,0-2.15-3.1l-.43-.21c-.36-.16-.42-.31-.42-.47v-.27c0-.26.21-.42.48-.52L234,23.52a2.81,2.81,0,0,1,1-.37c.26,0,.37.21.42.64l.37,3.21h.1c1.53-1.9,4.58-3.85,7.21-3.85a8.12,8.12,0,0,1,4.47,1.16,7.7,7.7,0,0,1,2.9,5Z"/><path class="cls-1" d="M259.16,30.41c0-1.78-.32-2.73-3-3.15-.36-.05-.47-.16-.47-.37v-.47c0-.17.11-.27.37-.37a43.8,43.8,0,0,0,5.68-2.58,2.17,2.17,0,0,1,1-.32c.26,0,.31.27.26.64-.1.89-.1,4.21-.1,8.57V38.1c0,2,0,3.94.05,4.51.1,1,.26,1.38.84,1.38h2.42c.42,0,.53.15.53.47v.89c0,.37-.11.53-.47.53s-2.85-.16-5.06-.16c-3.05,0-5.1.16-5.68.16a.37.37,0,0,1-.42-.42V44.41c0-.32.16-.42.53-.42h2.57c.58,0,.79-.21.85-1.06.05-1.58.05-3.21.05-4.78Zm-2.37-16A2.92,2.92,0,0,1,260,11.63a2.61,2.61,0,0,1,2.74,2.58,2.86,2.86,0,0,1-3.05,2.9,3,3,0,0,1-2.9-2.74"/><path class="cls-1" d="M277.89,40.88H278c.85-2.05,4.53-11,5.06-13.1.36-1.42,0-2.26-1-2.26h-1c-.16,0-.21-.26-.21-.52v-.95c0-.32.1-.42.31-.42.74,0,1.9.15,4.21.15,2,0,3.32-.15,3.79-.15s.47.05.47.47V25c0,.36,0,.52-.26.52h-1a2.07,2.07,0,0,0-1.63.58c-.79.74-3.42,6.47-4.21,8.42-.63,1.57-4.53,10.41-4.73,10.78-.43.74-.69,1.21-1.27,1.21s-.84-.47-1.1-1.1c-.11-.27-4-10.26-4.11-10.68s-2.31-6.42-2.68-7.26c-.68-1.53-1.21-1.95-2.15-1.95h-1.06c-.26,0-.31-.21-.31-.52v-.95c0-.37.1-.42.58-.42s1.47.15,4.42.15c2.79,0,4.15-.15,4.73-.15.42,0,.53.1.53.42V25c0,.31-.06.52-.37.52H274a.9.9,0,0,0-.95,1,44.23,44.23,0,0,0,1.68,6.21c.32,1,2.58,7.05,3.16,8.15"/><path class="cls-1" d="M292.15,31.73a13,13,0,0,0-.16,2.52c0,5.16,3.26,9,7.47,9a7.15,7.15,0,0,0,6.37-3.57.42.42,0,0,1,.47-.27l.68.37c.16.05.26.21,0,.79-.94,2.1-3.69,5.73-8.36,5.73-3,0-6.32-.89-8.26-3.74C288.52,39.93,288,38,288,34.31a11.85,11.85,0,0,1,3.32-8.37,9.76,9.76,0,0,1,7.52-2.79c6.05,0,7.73,5.69,7.73,7.74,0,.73-.63.84-1.47.84Zm8.36-1.58c1,0,1.42-.26,1.42-.74,0-1.21-.63-4.68-4.05-4.68-2.32,0-4.52,1.52-5.52,5.42Z"/><path class="cls-1" d="M311.54,31.73c0-2.69-.42-3.21-1.9-4l-1-.53c-.31-.1-.42-.15-.42-.36v-.32c0-.21.11-.31.42-.47l5.21-2.69a1.64,1.64,0,0,1,.73-.21c.32,0,.37.32.37.64l.27,3.62h.21c1.58-2.41,4.05-4.57,6.31-4.57a2.37,2.37,0,0,1,2.68,2.32,2.54,2.54,0,0,1-2.21,2.57,3.42,3.42,0,0,1-1.52-.42,3.41,3.41,0,0,0-1.74-.42,3.71,3.71,0,0,0-3.1,2.21,5.52,5.52,0,0,0-.53,1.69v11c0,1.63.37,2.16,1.48,2.16h2.47c.31,0,.37.15.37.47v.95c0,.31-.06.47-.27.47s-2.73-.16-5.57-.16c-3.27,0-5.47.16-5.79.16s-.31-.11-.31-.53v-.89c0-.37.1-.47.57-.47h2.06c.79,0,1.15-.32,1.15-1,.06-1.74.06-3.58.06-6.32Z"/><path class="cls-1" d="M325.71,44.83c-.26-.16-.26-.48-.31-.74l-.9-5c-.05-.26.11-.37.32-.42l.68-.15c.21-.06.37,0,.47.31l1.32,2.58c1,1.94,1.79,3.26,4.58,3.26,1.84,0,4.15-1.1,4.15-3.58s-1.16-3.73-5.1-4.84c-3.1-.89-6.21-2.52-6.21-6.68,0-3.63,3.42-6.42,7.37-6.42a9.85,9.85,0,0,1,4.84,1.11c.79.37.89.63.94.94l.79,3.69a.48.48,0,0,1-.36.47l-.64.21c-.21.05-.31,0-.47-.26l-1.79-2.42a4,4,0,0,0-3.68-2.05c-2,0-4,1.21-4,3.47,0,3.05,2.47,3.63,5,4.36,3.84,1.11,6.26,2.69,6.31,6.74,0,4.26-3.52,6.94-8,6.94a10,10,0,0,1-5.32-1.52"/><path class="cls-1" d="M344.28,30.41c0-1.78-.31-2.73-2.94-3.15-.37-.05-.48-.16-.48-.37v-.47c0-.17.11-.27.37-.37a43.88,43.88,0,0,0,5.69-2.58,2.17,2.17,0,0,1,1-.32c.27,0,.32.27.27.64-.11.89-.11,4.21-.11,8.57V38.1c0,2,0,3.94.05,4.51.11,1,.27,1.38.84,1.38h2.43c.42,0,.52.15.52.47v.89c0,.37-.1.53-.47.53s-2.85-.16-5.05-.16c-3.05,0-5.1.16-5.68.16-.27,0-.42-.11-.42-.42V44.41c0-.32.15-.42.52-.42h2.58c.58,0,.79-.21.84-1.06,0-1.58,0-3.2,0-4.78Zm-2.36-16a2.92,2.92,0,0,1,3.21-2.74,2.62,2.62,0,0,1,2.73,2.58,2.85,2.85,0,0,1-3.05,2.9,3,3,0,0,1-2.89-2.74"/><path class="cls-1" d="M358.7,39.15c0,3.94,1.79,4.63,2.73,4.63a7.52,7.52,0,0,0,3.48-.69.43.43,0,0,1,.63.1l.26.48c.16.21.05.42-.1.58a8.87,8.87,0,0,1-5.85,2.1c-2.57,0-5.1-2.47-5.1-4.47,0-2.15.16-6.78.16-7.52V33.2c0-1,0-4.47.11-6.68h-3.21c-.48,0-.79-.21-.79-.63s.31-.58.94-.95c1.27-.73,5.32-4.84,6-6.63a.71.71,0,0,1,.74-.52c.42,0,.52.37.52.79L359,23.79h7.31c.32,0,.48.26.37.47l-.53,1.84c-.05.26-.15.42-.47.42h-6.79c-.1,2.42-.15,4.94-.15,7.37Z"/><path class="cls-1" d="M367.64,57.35a2.32,2.32,0,0,1,2.42-2.05,9.34,9.34,0,0,1,2.43.57,1.25,1.25,0,0,0,1.1-.31c.79-1,3.47-6.94,4.21-9-.26-1.31-5.84-17.72-6.26-18.83-.63-1.31-1.11-2.21-2.47-2.21H367.7c-.37,0-.42-.15-.42-.47V24c0-.2.05-.36.42-.36s1.73.16,4.84.16c2.68,0,4.31-.16,4.89-.16.42,0,.47.16.47.36V25.1c0,.27,0,.42-.31.42h-1c-.58,0-.79.37-.69,1.16.16,1.16,3.74,12.73,4.32,13.89h.21c.53-.84,5.1-11.73,5.41-13s-.1-2-.89-2h-.84c-.32,0-.37-.15-.37-.42V24.05c0-.26.05-.42.32-.42.68,0,1.78.16,4.31.16,1.42,0,2.63-.16,3.21-.16.31,0,.31.21.31.42v1c0,.32,0,.47-.26.47h-.84a2.35,2.35,0,0,0-1.84.95c-1.16,1.42-4.63,9.41-8.26,17.67-2.58,5.84-4.63,10.74-5.57,12.47C374.38,58,373.43,60,370.64,60c-2,0-3-1.1-3-2.68"/><path class="cls-1" d="M402.61,42.72c-2.42-2.89-2.9-4.84-2.9-8.57a11.17,11.17,0,0,1,4.53-8.47,11.34,11.34,0,0,1,7.05-2.53,11.12,11.12,0,0,1,7.36,3.05,11.7,11.7,0,0,1,3.58,8.58A12,12,0,0,1,410.6,46.35a10.61,10.61,0,0,1-8-3.63m15.2-8.47c0-5.84-4.26-9.52-6.94-9.52a5.07,5.07,0,0,0-4.05,1.69c-2.06,2.1-2.79,4.25-2.79,8.25,0,2.95.32,4.95,2,7.37a5.81,5.81,0,0,0,5.21,2.74c4,0,6.57-4.9,6.57-10.53"/><path class="cls-1" d="M427.6,26.31H424c-.26,0-.36-.11-.26-.58l.21-1.58c0-.31.22-.37.64-.37h3.05v-1c0-5.21,1.47-8.63,3.52-10.94,2.79-3,5.68-4.16,8.63-4.16,2.47,0,4.79.94,4.79,2.94a2.53,2.53,0,0,1-2.21,2.27,3.38,3.38,0,0,1-1.48-.32,5.65,5.65,0,0,1-1.26-1.21,2.89,2.89,0,0,0-2.42-1.21A4.68,4.68,0,0,0,433.23,12c-2,2.47-1.85,7.05-1.85,10.73v1.05h6.37c.37,0,.42.32.37.53l-.26,1.74c-.06.2-.26.26-.69.26h-5.79V31c0,6.21,0,11.05.06,11.62.1.9.26,1.38,1.37,1.38h3c.48,0,.58.1.58.42v.84c0,.42-.1.63-.36.63s-2.27-.16-6.32-.16c-2.89,0-5.57.16-6,.16s-.42-.11-.42-.37V44.36c0-.27.11-.37.53-.37h2.52c1,0,1.22-.64,1.27-1.84V26.31Z"/><path class="cls-1" d="M98.39,93.14c-.63-.47-.94-.63-1.2-.63s-.53.37-.85.89-.57.64-.94.64-.58-.27-.48-.84c.21-1.32.74-8,.9-9.52.05-.32.15-.32.37-.32l.78,0c.22,0,.32.11.32.42a10.33,10.33,0,0,0,1.89,6.1,8.81,8.81,0,0,0,7.37,3.9c3.15,0,7.15-2,7.15-6.68,0-5.42-3.89-7.42-8.1-8.89-1.63-.58-5.42-1.9-7.68-4.26-1.73-1.74-2.63-4.21-2.63-7.68a9.94,9.94,0,0,1,3.26-6.74,10.49,10.49,0,0,1,7.37-2.52,15.11,15.11,0,0,1,6.2,1.31c.48.26.74.21,1,0l.69-.63a1,1,0,0,1,.68-.31c.26,0,.42.41.42.88,0,1.85.69,7.21.74,8.37,0,.26-.05.37-.26.42l-.64.16a.22.22,0,0,1-.31-.16,12.83,12.83,0,0,0-3.26-5.84A7.32,7.32,0,0,0,105.44,59a6,6,0,0,0-6.36,6.15,6.38,6.38,0,0,0,1.63,4.58,16.47,16.47,0,0,0,6,3.16c3.63,1.16,6.57,2,8.46,4.36a10.28,10.28,0,0,1,2.32,7.16c0,6.21-3.79,11.52-10.73,11.52a12.93,12.93,0,0,1-8.37-2.74"/><path class="cls-1" d="M122.63,92.09c-2.42-2.89-2.9-4.84-2.9-8.57a11.17,11.17,0,0,1,4.53-8.47,11.34,11.34,0,0,1,7-2.53,11.11,11.11,0,0,1,7.36,3.06,11.64,11.64,0,0,1,3.58,8.57,12,12,0,0,1-11.63,11.57,10.61,10.61,0,0,1-8-3.63m15.2-8.47c0-5.84-4.26-9.52-6.94-9.52a5.09,5.09,0,0,0-4,1.68c-2,2.11-2.79,4.26-2.79,8.26,0,2.95.31,4.95,2,7.37a5.83,5.83,0,0,0,5.21,2.73c4,0,6.57-4.89,6.57-10.52"/><path class="cls-1" d="M164,84.41c0,2.53,0,5.1.11,6.21.16,1.63.74,1.84,1.37,1.84a7.61,7.61,0,0,0,1.73-.16c.43-.1.59,0,.64.21l.15.69c.06.31-.05.42-.26.47l-5.52,1.84a3,3,0,0,1-1.05.21c-.22,0-.42-.1-.48-.63l-.42-3h-.1A9.64,9.64,0,0,1,153,95.72a5.5,5.5,0,0,1-4.94-2.42C145.9,90.51,146,88.78,146,83v-6.1c-.06-1.47-.79-1.84-2-2-.9,0-1.16-.11-1.16-.37v-1c0-.31.1-.42.58-.42h4.68a2.94,2.94,0,0,0,.74-.1c.21,0,.42,0,.57,0a.54.54,0,0,1,.58.63c-.05.47-.21,2.94-.21,6.05v3.73c0,2.11-.52,5.47,1.16,7.89a4.39,4.39,0,0,0,4.21,2c1.42,0,3.52-1.37,4.52-2.63a2.78,2.78,0,0,0,.53-1.42V76.73c-.11-1.47-1-1.73-2.26-1.84-.9,0-1.16-.11-1.16-.37v-.89c0-.43.11-.48.63-.48h4.89a4.48,4.48,0,0,0,.9-.1c.26,0,.47,0,.63,0a.45.45,0,0,1,.47.52,46.48,46.48,0,0,0-.32,7Z"/><path class="cls-1" d="M175.54,88.51c0,3.95,1.79,4.63,2.73,4.63a7.59,7.59,0,0,0,3.47-.68.44.44,0,0,1,.64.1l.26.48c.16.21.05.42-.11.58a8.86,8.86,0,0,1-5.84,2.1c-2.57,0-5.1-2.47-5.1-4.47,0-2.16.16-6.79.16-7.52V82.57c0-.95.05-4.47.11-6.68h-3.22c-.47,0-.78-.21-.78-.63s.31-.58.94-1c1.27-.74,5.32-4.84,6-6.63a.7.7,0,0,1,.74-.52c.42,0,.52.37.52.79l-.26,5.2h7.31a.35.35,0,0,1,.37.48L183,75.47c0,.26-.15.42-.47.42h-6.79c-.1,2.42-.15,4.94-.15,7.36Z"/><path class="cls-1" d="M187.6,66.42c0-3.21-.63-3.79-2.52-4.42l-.9-.31c-.31-.11-.37-.16-.37-.32v-.48c0-.2.16-.25.64-.52l5.46-2.89a2.83,2.83,0,0,1,1.21-.42c.32,0,.53.42.43,1.31s-.16,11.58-.16,14.21v3.36h.26a10,10,0,0,1,7.21-3.42,6.85,6.85,0,0,1,5.2,2.11c2.37,2.2,2.27,4.89,2.27,7.73v3c0,3,.1,6.21.1,7.21,0,.63.85.79,1.95.79h.89c.43,0,.58.1.58.47v.79c0,.42-.1.63-.42.63s-2.05-.16-5.05-.16c-2.58,0-4.47.16-4.94.16s-.48-.16-.48-.58v-.89c0-.27.06-.42.37-.42h1.21c.9,0,2-.11,2-1,.05-.74,0-3.53,0-5.21V82.89c0-3-.21-5-1.74-6.48a4.84,4.84,0,0,0-3.47-1.47,6.43,6.43,0,0,0-4.89,2.21,4.53,4.53,0,0,0-1.05,2.58V91.2c0,1.68.16,2.16,1.16,2.16h1.57c.37,0,.58.1.58.42v.89c0,.37-.1.58-.42.58s-2.58-.16-5-.16c-2.63,0-4.63.16-5.1.16-.21,0-.37-.16-.37-.53v-.94c0-.37.21-.42.79-.42h1.11c.84,0,1.63-.22,1.73-.85.16-1,.16-6.78.16-10.21Z"/><path class="cls-1" d="M214.37,81.09a14,14,0,0,0-.16,2.53c0,5.16,3.27,9,7.48,9a7.12,7.12,0,0,0,6.36-3.58.44.44,0,0,1,.48-.26l.68.37c.16,0,.26.21,0,.78-1,2.11-3.68,5.74-8.36,5.74-3,0-6.32-.89-8.26-3.73-1.85-2.69-2.32-4.63-2.32-8.31a11.85,11.85,0,0,1,3.32-8.37,9.72,9.72,0,0,1,7.52-2.79c6,0,7.73,5.68,7.73,7.73,0,.74-.63.84-1.47.84Zm8.37-1.57c1,0,1.42-.27,1.42-.74,0-1.2-.63-4.68-4-4.68-2.32,0-4.52,1.52-5.53,5.42Z"/><path class="cls-1" d="M234.14,81.1c0-2.69-.42-3.21-1.9-4l-1-.53c-.31-.1-.42-.15-.42-.37v-.31c0-.21.11-.31.42-.47l5.21-2.69a1.58,1.58,0,0,1,.74-.21c.32,0,.37.32.37.63l.26,3.63H238c1.58-2.42,4.05-4.57,6.32-4.57A2.38,2.38,0,0,1,247,74.52a2.55,2.55,0,0,1-2.21,2.58,3.5,3.5,0,0,1-1.53-.42,3.4,3.4,0,0,0-1.73-.42,3.73,3.73,0,0,0-3.11,2.21,5.77,5.77,0,0,0-.52,1.68v11c0,1.63.36,2.15,1.47,2.15h2.47c.32,0,.37.16.37.48v.94c0,.32-.05.48-.26.48s-2.74-.16-5.58-.16c-3.26,0-5.47.16-5.78.16s-.33-.11-.33-.53v-.89c0-.37.11-.48.59-.48h2.05c.79,0,1.16-.31,1.16-1,0-1.74,0-3.58,0-6.32Z"/><path class="cls-1" d="M269.52,92.25c0,.84.48,1.11,1.16,1.11h1.68c.48,0,.58.15.58.47v.84c0,.37-.1.58-.42.58s-2-.16-5-.16c-2.68,0-4.36.16-4.73.16s-.42-.16-.42-.58v-.84c0-.37.16-.47.68-.47h1.53c.58,0,1-.27,1.05-1.22.05-1.36.11-3,.11-4.41v-7c0-2.1,0-3.63-1.53-4.74a5.8,5.8,0,0,0-3.84-.94,6.18,6.18,0,0,0-4.26,2.05,5.18,5.18,0,0,0-1.21,3.58V91.62c0,1.42.16,1.74,1.26,1.74h1.32c.42,0,.52.15.52.52v.89c0,.32-.1.48-.37.48s-1.78-.16-4.57-.16-4.36.16-4.68.16-.37-.16-.37-.48v-.94c0-.32.11-.47.52-.47h1.53c.68,0,1.05-.16,1.05-1.06V80a3.23,3.23,0,0,0-2.16-3.1l-.42-.21c-.36-.16-.41-.32-.41-.47v-.27c0-.26.2-.42.47-.52l4.52-2.53a2.81,2.81,0,0,1,.95-.37c.26,0,.37.21.42.63l.37,3.21h.1c1.53-1.89,4.58-3.84,7.21-3.84a8.12,8.12,0,0,1,4.47,1.16,7.64,7.64,0,0,1,2.89,5Z"/><path class="cls-1" d="M289.67,91c-3.79-3.58-5.62-9.68-5.62-14.73a20,20,0,0,1,5.36-13.94,18.32,18.32,0,0,1,13.15-5.31A21.84,21.84,0,0,1,313.19,60c.68.42.94.37,1.05,0l.42-1.52c.1-.32.21-.32.68-.32s.58.1.58.84c0,1,1.05,8.73,1.32,10.2.05.27,0,.48-.21.53l-.79.21c-.27.06-.37,0-.53-.42a20.57,20.57,0,0,0-4.1-6.53,12.23,12.23,0,0,0-9.16-4c-9.41,0-13.2,8.36-13.15,16a21.08,21.08,0,0,0,5.05,13.52c3.58,4,6.58,4.42,10.1,4.42a16.08,16.08,0,0,0,13-6.68c.15-.27.26-.31.42-.16l.68.53c.16.1.26.21.11.47-3.16,4.58-8.26,8.84-15.68,8.84-6.21,0-10.15-1.95-13.31-4.84"/><path class="cls-1" d="M335.62,88.83c0,3,.63,3.94,1.58,3.94A2.41,2.41,0,0,0,339,92c.21-.27.31-.37.53-.21l.52.42c.16.16.26.42,0,.94a4.35,4.35,0,0,1-4.11,2.58c-1.89,0-3.26-1.37-3.73-3.52h-.1a11.37,11.37,0,0,1-5.21,3.2,9.76,9.76,0,0,1-3.1.32c-1.27,0-3.16-1-3.16-4.37,0-2.41,1.1-4.52,5.26-6.36a34.94,34.94,0,0,0,5.94-3V78.57a6,6,0,0,0-.74-2.94,4,4,0,0,0-3.15-1.16,5.85,5.85,0,0,0-3.42,1.11c-.73.68-.26,1.47-.26,2.41,0,1.84-.64,3-2.79,3-.84,0-1.26-.47-1.26-1.68,0-1.69,1.47-3.68,3.63-5a11.61,11.61,0,0,1,6.41-1.84c2.48,0,3.48.74,4.21,1.42,1.11,1.11,1.16,2.32,1.16,3.74V88.83Zm-3.84-5.31c-1.9,1.42-7,2.47-7,6.83a2.59,2.59,0,0,0,2.74,2.9c1.52,0,4.31-1.84,4.31-3.27Z"/><path class="cls-1" d="M348.88,79.41c0,2.74,0,10.68.06,12.31.05.9.26,1.64,1.37,1.64h2.36c.48,0,.58.15.58.47v.89c0,.31-.1.53-.31.53-.37,0-2.69-.16-5.95-.16s-5.47.16-5.95.16c-.25,0-.36-.22-.36-.53v-.89c0-.37.11-.47.68-.47h2.52c.59,0,1.11-.37,1.16-1.32.06-1.63.06-10.68.06-13.73V75c0-3.74-.06-8.53-.16-9.9-.11-1.79-.95-2.62-2.63-3.15l-1.05-.37c-.26-.1-.32-.15-.32-.26V60.9c0-.16.16-.26.48-.37a49.34,49.34,0,0,0,6.15-3.05,1.9,1.9,0,0,1,1.1-.42c.37,0,.48.26.43.94-.06,2.9-.22,13.84-.22,16.73Z"/><path class="cls-1" d="M358.45,79.78c0-1.79-.31-2.73-2.94-3.16-.37-.05-.47-.15-.47-.36v-.48c0-.15.1-.26.36-.36a43.93,43.93,0,0,0,5.68-2.58,2.24,2.24,0,0,1,1-.32c.27,0,.32.27.27.63-.1.9-.1,4.21-.1,8.58v5.73c0,2.05,0,4,0,4.52.11,1,.26,1.37.85,1.37h2.42c.42,0,.52.16.52.48v.89c0,.37-.1.53-.47.53s-2.84-.16-5.05-.16c-3.05,0-5.11.16-5.68.16a.37.37,0,0,1-.42-.42V93.77c0-.31.16-.42.53-.42h2.57c.58,0,.79-.21.84-1,.05-1.58.05-3.21.05-4.79Zm-2.36-16A2.92,2.92,0,0,1,359.3,61,2.61,2.61,0,0,1,362,63.58a2.85,2.85,0,0,1-3,2.89,3,3,0,0,1-2.89-2.73"/><path class="cls-1" d="M371.74,75.68h-3.63c-.26,0-.37-.11-.26-.58l.21-1.58c.05-.32.21-.36.63-.36h3.05v-1c0-5.2,1.47-8.62,3.52-10.94,2.79-3.05,5.69-4.15,8.63-4.15,2.47,0,4.79.94,4.79,2.94a2.53,2.53,0,0,1-2.21,2.27A3.31,3.31,0,0,1,385,62a5.5,5.5,0,0,1-1.27-1.21,2.89,2.89,0,0,0-2.42-1.21,4.68,4.68,0,0,0-3.94,1.84c-1.95,2.47-1.84,7.05-1.84,10.73v1.06h6.36c.37,0,.42.31.37.52L382,75.42c-.05.21-.26.26-.69.26h-5.78v4.68c0,6.21,0,11,.05,11.63.11.89.26,1.37,1.37,1.37h3c.47,0,.57.1.57.41v.85c0,.42-.1.63-.36.63s-2.27-.16-6.32-.16c-2.89,0-5.57.16-6,.16s-.43-.11-.43-.37V93.72c0-.26.11-.36.53-.36h2.53c1,0,1.21-.64,1.26-1.85V75.68Z"/><path class="cls-1" d="M384.22,92.09c-2.42-2.89-2.89-4.84-2.89-8.57a11.18,11.18,0,0,1,4.52-8.47,11.38,11.38,0,0,1,7-2.53,11.16,11.16,0,0,1,7.37,3.06,11.67,11.67,0,0,1,3.57,8.57,12,12,0,0,1-11.62,11.57,10.61,10.61,0,0,1-8-3.63m15.2-8.47c0-5.84-4.26-9.52-6.94-9.52a5.09,5.09,0,0,0-4.05,1.68c-2.05,2.11-2.79,4.26-2.79,8.26,0,2.95.32,4.95,2,7.37a5.84,5.84,0,0,0,5.21,2.73c4,0,6.57-4.89,6.57-10.52"/><path class="cls-1" d="M408,81.1c0-2.69-.42-3.21-1.9-4l-1-.53c-.32-.1-.42-.15-.42-.37v-.31c0-.21.1-.31.42-.47l5.2-2.69a1.58,1.58,0,0,1,.74-.21c.31,0,.37.32.37.63l.26,3.63h.21c1.58-2.42,4.05-4.57,6.32-4.57a2.38,2.38,0,0,1,2.68,2.31,2.55,2.55,0,0,1-2.21,2.58,3.47,3.47,0,0,1-1.53-.42,3.4,3.4,0,0,0-1.73-.42,3.7,3.7,0,0,0-3.1,2.21,5.56,5.56,0,0,0-.53,1.68v11c0,1.63.36,2.15,1.47,2.15h2.47c.32,0,.37.16.37.48v.94c0,.32-.05.48-.26.48s-2.74-.16-5.58-.16c-3.26,0-5.47.16-5.79.16s-.31-.11-.31-.53v-.89c0-.37.1-.48.58-.48h2.05c.79,0,1.16-.31,1.16-1,.05-1.74.05-3.58.05-6.32Z"/><path class="cls-1" d="M443.34,92.25c0,.84.47,1.11,1.15,1.11h1.69c.47,0,.58.15.58.47v.84c0,.37-.11.58-.43.58s-2-.16-5-.16c-2.69,0-4.37.16-4.73.16s-.43-.16-.43-.58v-.84c0-.37.16-.47.69-.47h1.52c.58,0,1-.27,1.06-1.22.05-1.36.1-3,.1-4.41v-7c0-2.1,0-3.63-1.52-4.74a5.83,5.83,0,0,0-3.85-.94,6.18,6.18,0,0,0-4.26,2.05,5.18,5.18,0,0,0-1.21,3.58V91.62c0,1.42.16,1.74,1.27,1.74h1.31c.42,0,.53.15.53.52v.89c0,.32-.11.48-.37.48s-1.79-.16-4.58-.16-4.37.16-4.68.16-.37-.16-.37-.48v-.94c0-.32.11-.47.53-.47h1.52c.69,0,1.06-.16,1.06-1.06V80a3.24,3.24,0,0,0-2.16-3.1l-.42-.21c-.37-.16-.42-.32-.42-.47v-.27c0-.26.21-.42.47-.52l4.52-2.53a2.89,2.89,0,0,1,.95-.37c.26,0,.37.21.42.63l.37,3.21h.1c1.53-1.89,4.58-3.84,7.21-3.84a8.18,8.18,0,0,1,4.48,1.16,7.68,7.68,0,0,1,2.89,5Z"/><path class="cls-1" d="M452.07,79.78c0-1.79-.31-2.73-2.95-3.16-.36-.05-.47-.15-.47-.36v-.48c0-.15.11-.26.37-.36a44.55,44.55,0,0,0,5.68-2.58,2.21,2.21,0,0,1,1-.32c.26,0,.32.27.26.63-.1.9-.1,4.21-.1,8.58v5.73c0,2.05,0,4,.05,4.52.11,1,.26,1.37.85,1.37h2.41c.43,0,.53.16.53.48v.89c0,.37-.1.53-.47.53s-2.85-.16-5.05-.16c-3.05,0-5.11.16-5.69.16-.26,0-.41-.11-.41-.42V93.77c0-.31.15-.42.52-.42h2.58c.58,0,.79-.21.84-1,.05-1.58.05-3.21.05-4.79Zm-2.36-16A2.92,2.92,0,0,1,452.92,61a2.61,2.61,0,0,1,2.73,2.58,2.85,2.85,0,0,1-3,2.89,3,3,0,0,1-2.89-2.73"/><path class="cls-1" d="M476.33,88.83c0,3,.63,3.94,1.57,3.94a2.39,2.39,0,0,0,1.84-.78c.21-.27.32-.37.53-.21l.52.42c.16.16.27.42-.05.94a4.33,4.33,0,0,1-4.1,2.58c-1.89,0-3.26-1.37-3.74-3.52h-.1a11.27,11.27,0,0,1-5.21,3.2,9.73,9.73,0,0,1-3.1.32c-1.26,0-3.16-1-3.16-4.37,0-2.41,1.11-4.52,5.26-6.36a35.12,35.12,0,0,0,6-3V78.57c-.11-.89-.16-2.26-.74-2.94a4,4,0,0,0-3.15-1.16,5.82,5.82,0,0,0-3.42,1.11c-.74.68-.27,1.47-.27,2.41,0,1.84-.63,3-2.78,3-.85,0-1.27-.47-1.27-1.68,0-1.69,1.47-3.68,3.63-5A11.65,11.65,0,0,1,471,72.52a5.43,5.43,0,0,1,4.21,1.42,4.69,4.69,0,0,1,1.16,3.74V88.83Zm-3.84-5.31c-1.9,1.42-7.05,2.47-7.05,6.83a2.59,2.59,0,0,0,2.73,2.9c1.53,0,4.32-1.84,4.32-3.27Z"/></svg>