<?xml version="1.0" encoding="UTF-8"?>
<!-- Generator: Adobe Illustrator 15.0.2, SVG Export Plug-In . SVG Version: 6.00 Build 0)  -->
<!DOCTYPE svg PUBLIC "-//W3C//DTD SVG 1.1//EN" "http://www.w3.org/Graphics/SVG/1.1/DTD/svg11.dtd">
<svg version="1.1" class="logo-usc" xmlns="http://www.w3.org/2000/svg" xmlns:xlink="http://www.w3.org/1999/xlink" x="0px" y="0px" width="300" viewBox="48 0 250 55" preserveAspectRatio="xMaxYMin meet">
<path fill="#990000b3" d="M49.184,6.657c0-0.922-0.219-1.355-0.922-1.355h-1.246c-0.166,0-0.219-0.056-0.219-0.245V4.433
	c0-0.162,0.053-0.217,0.271-0.217c0.271,0,1.572,0.082,4.174,0.082c2.277,0,3.578-0.082,3.906-0.082
	c0.162,0,0.215,0.055,0.215,0.191v0.679c0,0.16-0.053,0.216-0.215,0.216h-1.141c-0.814,0-1.301,0.487-1.328,1.056
	c-0.027,0.326-0.08,1.953-0.08,3.524v3.362c0,1.355,0.025,3.28,0.08,4.147c0.08,1.249,0.299,2.495,0.949,3.362
	c0.922,1.246,2.385,1.68,3.686,1.68c1.246,0,2.766-0.489,3.633-1.3c1.031-1.03,1.572-2.601,1.572-4.582v-4.878
	c0-2.171-0.217-4.557-0.299-5.178c-0.082-0.706-0.514-1.193-1.111-1.193h-0.975c-0.162,0-0.217-0.082-0.217-0.191V4.433
	c0-0.162,0.055-0.217,0.217-0.217c0.271,0,1.518,0.082,3.307,0.082c1.682,0,2.549-0.082,2.766-0.082
	c0.244,0,0.271,0.082,0.271,0.217v0.624c0,0.163-0.027,0.245-0.164,0.245H65.34c-0.977,0-1.086,0.758-1.139,1.056
	c-0.053,0.326-0.053,4.121-0.053,4.474c0,0.379-0.057,5.096-0.164,6.181c-0.164,2.222-0.814,3.902-2.277,5.204
	c-1.139,1.03-2.875,1.68-4.934,1.68c-1.303,0-2.873-0.216-3.904-0.65c-1.572-0.651-2.656-1.896-3.199-3.632
	c-0.379-1.193-0.486-2.983-0.486-6.536V6.657z"></path>
<path fill="#990000b3" d="M67.238,17.445c0.107,0,0.162,0.056,0.162,0.218c0.057,0.867,0.271,1.897,1.031,3.091
	c0.812,1.3,2.223,1.951,3.578,1.951c1.463,0,3.523-0.922,3.523-3.171c0-2.494-1.139-3.31-4.012-4.393
	c-0.867-0.325-2.656-1.085-3.957-2.276c-0.922-0.87-1.355-2.224-1.355-3.877c0-1.519,0.596-2.765,1.896-3.797
	c1.086-0.919,2.279-1.3,3.85-1.3c1.789,0,2.873,0.432,3.416,0.65c0.271,0.11,0.434,0.054,0.568-0.081l0.354-0.352
	c0.107-0.108,0.217-0.161,0.379-0.161c0.164,0,0.219,0.161,0.219,0.431c0,0.435,0.432,4.229,0.432,4.502
	c0,0.108-0.053,0.162-0.164,0.189l-0.432,0.137c-0.109,0.026-0.217,0-0.27-0.164c-0.273-0.76-0.707-1.844-1.682-2.873
	c-0.705-0.759-1.574-1.14-2.82-1.14c-2.168,0-3.035,1.735-3.035,2.738c0,0.922,0.105,1.735,0.758,2.44
	c0.707,0.706,2.223,1.355,3.307,1.681c1.572,0.489,2.875,1.031,3.906,2.115c0.865,0.922,1.354,2.059,1.354,3.878
	c0,3.306-2.168,6.016-5.746,6.016c-2.225,0-3.525-0.488-4.609-1.301c-0.324-0.218-0.488-0.326-0.65-0.326s-0.271,0.217-0.434,0.488
	c-0.162,0.273-0.27,0.327-0.488,0.327c-0.215,0-0.324-0.162-0.324-0.434c0.053-0.327,0.434-4.72,0.486-5.043
	c0.029-0.164,0.057-0.217,0.164-0.217L67.238,17.445z"></path>
<path fill="#990000b3" d="M97.33,19.072c0.08,0.082,0.107,0.163,0.055,0.27c-1.629,2.333-4.23,4.555-8.08,4.555
	c-3.469,0-5.42-1.031-7.102-2.549c-2.006-1.788-2.926-4.933-2.926-7.318c0-2.657,0.867-5.205,2.764-7.265
	c1.463-1.572,3.795-2.873,7.047-2.873c2.494,0,4.5,0.759,5.477,1.301c0.379,0.217,0.488,0.217,0.543,0l0.215-0.706
	c0.055-0.161,0.109-0.161,0.434-0.161c0.326,0,0.381,0.053,0.381,0.434c0,0.488,0.543,4.824,0.65,5.637
	c0.027,0.163,0,0.245-0.107,0.273l-0.516,0.162c-0.137,0.053-0.217-0.055-0.299-0.271c-0.326-0.976-0.975-2.33-2.113-3.524
	c-1.193-1.139-2.604-2.007-4.717-2.007c-4.338,0-6.127,3.904-6.127,7.808c0,1.68,0.488,4.879,2.492,7.048
	c1.791,1.897,3.363,2.114,4.664,2.114c2.98,0,5.34-1.489,6.48-3.143c0.135-0.191,0.242-0.271,0.324-0.191L97.33,19.072z"></path>
	<text x="100" y="20" fill="black" font-size="20px">Advanced</text>
	<text x="100" y="45" fill="black" font-size="20px">Research Computing</text>
</svg>